<svg width="1440" height="900" viewBox="0 0 1440 900" xmlns="http://www.w3.org/2000/svg">

<defs>
  <style>
    .bg { fill: #f5f7fb; }
    .card { fill: #ffffff; stroke: #d9e1ec; stroke-width: 1; rx: 12; }
    .sidebar { fill: #0b1522; }
    .nav-active { fill: #0d6efd; rx: 8; }
    .title { font-family: Arial, "Microsoft YaHei", sans-serif; font-size: 28px; font-weight: 700; fill: #101828; }
    .section { font-family: Arial, "Microsoft YaHei", sans-serif; font-size: 20px; font-weight: 700; fill: #101828; }
    .sub { font-family: Arial, "Microsoft YaHei", sans-serif; font-size: 16px; font-weight: 700; fill: #344054; }
    .text { font-family: Arial, "Microsoft YaHei", sans-serif; font-size: 14px; fill: #344054; }
    .muted { font-family: Arial, "Microsoft YaHei", sans-serif; font-size: 13px; fill: #667085; }
    .small { font-family: Arial, "Microsoft YaHei", sans-serif; font-size: 12px; fill: #667085; }
    .nav { font-family: Arial, "Microsoft YaHei", sans-serif; font-size: 15px; fill: #d0d5dd; }
    .num { font-family: Arial, "Microsoft YaHei", sans-serif; font-size: 32px; font-weight: 700; fill: #111827; }
    .red { fill: #d92d20; }
    .green { fill: #039855; }
    .blue { fill: #0d6efd; }
    .orange { fill: #f79009; }
    .line { stroke: #eaecf0; stroke-width: 1; }
    .arrow { stroke: #f04438; stroke-width: 2; marker-end: url(#arrowhead); }
    .spark-red { fill: none; stroke: #f04438; stroke-width: 2; }
    .spark-blue { fill: none; stroke: #2e90fa; stroke-width: 2; }
    .spark-green { fill: none; stroke: #12b76a; stroke-width: 2; }
    .badge-red { fill: #fee4e2; stroke: #fda29b; }
    .badge-green { fill: #dcfae6; stroke: #75e0a7; }
    .badge-blue { fill: #e0efff; stroke: #84caff; }
    .badge-orange { fill: #fef0c7; stroke: #fedf89; }
    .bt-red { font-family: Arial, "Microsoft YaHei", sans-serif; font-size: 12px; font-weight: 700; fill: #b42318; }
    .bt-green { font-family: Arial, "Microsoft YaHei", sans-serif; font-size: 12px; font-weight: 700; fill: #027a48; }
    .bt-blue { font-family: Arial, "Microsoft YaHei", sans-serif; font-size: 12px; font-weight: 700; fill: #175cd3; }
    .bt-orange { font-family: Arial, "Microsoft YaHei", sans-serif; font-size: 12px; font-weight: 700; fill: #b54708; }
    .button { fill: #0d6efd; rx: 8; }
    .button-text { font-family: Arial, "Microsoft YaHei", sans-serif; font-size: 14px; font-weight: 700; fill: #ffffff; }
    .ghost { fill: #ffffff; stroke: #c8d3e1; rx: 8; }
  </style>
  <marker id="arrowhead" markerWidth="10" markerHeight="7" refX="9" refY="3.5" orient="auto">
    <polygon points="0 0, 10 3.5, 0 7" fill="#f04438" />
  </marker>
</defs>

<rect class="bg" x="0" y="0" width="1440" height="900"/>
<rect class="sidebar" x="0" y="0" width="160" height="900"/>
<text x="24" y="42" class="section" fill="#fff">SRE Agent</text>
<text x="36" y="86" class="nav">服务健康</text><rect x="16" y="112" width="128" height="36" class="nav-active"/><text x="36" y="134" class="nav" fill="#fff">RCA 分析</text><text x="36" y="182" class="nav">证据明细</text><text x="36" y="230" class="nav">Chaos 实验</text><text x="36" y="278" class="nav">环境状态</text><text x="36" y="326" class="nav">设置</text>
<text x="24" y="745" class="small" fill="#98a2b3">环境</text>
<text x="24" y="772" class="nav">local-kind-demo</text>
<circle cx="132" cy="767" r="5" fill="#12b76a"/>
<text x="24" y="820" class="small" fill="#98a2b3">2025-05-20 14:30:25</text>
<text x="190" y="48" class="title">3 RCA 分析结果</text>

<text x="190" y="85" class="small">RCA 分析 ＞ 分析结果</text>
<text x="1040" y="48" class="muted">分析时间：20.9s</text>
<rect x="1130" y="25" width="90" height="34" class="ghost"/><text x="1150" y="47" class="muted">重新分析</text>
<rect x="1235" y="25" width="90" height="34" class="button"/><text x="1253" y="47" class="button-text">生成报告</text>

<rect x="190" y="110" width="300" height="150" class="card"/>
<text x="220" y="150" class="muted">当前判断</text><text x="220" y="195" class="title orange">竞争假设</text>
<text x="220" y="225" class="text">两个候选根因得分接近，证据不足以唯一收敛。</text>

<rect x="520" y="110" width="330" height="150" class="card"/>
<circle cx="548" cy="145" r="12" fill="#f04438"/><text x="548" y="150" text-anchor="middle" fill="#fff" font-size="13">1</text>
<text x="575" y="150" class="sub">下游依赖延迟导致超时</text>
<text x="575" y="198" class="num">1.00</text>
<rect x="575" y="215" width="70" height="26" class="badge-green"/><text x="588" y="233" class="bt-green">高置信</text><rect x="655" y="215" width="86" height="26" class="badge-blue"/><text x="668" y="233" class="bt-blue">证据最集中</text>

<rect x="880" y="110" width="330" height="150" class="card"/>
<circle cx="908" cy="145" r="12" fill="#f79009"/><text x="908" y="150" text-anchor="middle" fill="#fff" font-size="13">2</text>
<text x="935" y="150" class="sub">最近部署引入回归</text>
<text x="935" y="198" class="num">1.00</text>
<rect x="935" y="215" width="70" height="26" class="badge-green"/><text x="948" y="233" class="bt-green">高置信</text><rect x="1015" y="215" width="95" height="26" class="badge-orange"/><text x="1028" y="233" class="bt-orange">同分需谨慎</text>

<rect x="190" y="295" width="660" height="280" class="card"/>
<text x="220" y="330" class="section">关键解释</text>
<rect x="220" y="360" width="570" height="36" rx="8" fill="#eef6ff"/><text x="245" y="383" class="text">● payment-service P95 延迟显著升高（2.42s）</text><text x="720" y="383" class="bt-blue">强支持</text>
<rect x="220" y="410" width="570" height="36" rx="8" fill="#eef6ff"/><text x="245" y="433" class="text">● order-service 出现 downstream timeout 错误</text><text x="720" y="433" class="bt-blue">强支持</text>
<rect x="220" y="460" width="570" height="36" rx="8" fill="#eef6ff"/><text x="245" y="483" class="text">● Jaeger 显示 payment-service span 占主要耗时</text><text x="720" y="483" class="bt-blue">强支持</text>
<rect x="220" y="510" width="570" height="36" rx="8" fill="#f6fffa"/><text x="245" y="533" class="text">● Kubernetes 未发现 order-service OOM / CrashLoop</text><text x="705" y="533" class="bt-green">反驳 OOM</text>

<rect x="880" y="295" width="330" height="280" class="card"/>
<text x="910" y="330" class="section">证据概览（有效证据）</text>
<circle cx="1035" cy="435" r="72" fill="none" stroke="#12b76a" stroke-width="22"/>
<path d="M1035 363 A72 72 0 0 1 1100 465" fill="none" stroke="#2e90fa" stroke-width="22"/>
<path d="M1100 465 A72 72 0 0 1 975 500" fill="none" stroke="#7a5af8" stroke-width="22"/>
<text x="1035" y="430" text-anchor="middle" class="num">229</text><text x="1035" y="458" text-anchor="middle" class="muted">总计</text>
<text x="920" y="540" class="small">Prometheus 54 / Loki 62 / Jaeger 88 / Kubernetes 19 / Alertmanager 6</text>

<rect x="190" y="610" width="1020" height="170" class="card"/>
<text x="220" y="645" class="section">AI 假设建议（未验证，不改变 RCA 结论）</text>
<text x="220" y="685" class="sub">支付服务延迟可能被订单服务超时和重试策略放大</text>
<text x="220" y="715" class="text">建议验证：order-service retry count、payment-service p95/p99 latency、timeout/retry policy 是否近期变化。</text>
<text x="220" y="748" class="muted">边界：AI 只提出可验证假设，不修改当前 RCA 结论。</text>
</svg>